 <svg version="1.0" xmlns="http://www.w3.org/2000/svg" width="700.000000pt" height="700.000000pt" viewBox="0 0 700.000000 700.000000" preserveAspectRatio="xMidYMid meet">
<metadata>
Created by potrace 1.12, written by Peter Selinger 2001-2015
</metadata>
<g transform="translate(0.000000,700.000000) scale(0.100000,-0.100000)" fill="#000000" stroke="none">
<path d="M3856 6503 c-78 -223 -276 -816 -276 -825 0 -7 41 -75 92 -151 73
-110 94 -135 99 -121 8 18 108 1136 104 1142 -2 2 -10 -19 -19 -45z"></path>
<path d="M2753 6121 c-40 -109 -73 -204 -73 -211 0 -14 128 -228 141 -236 5
-3 9 141 9 320 0 179 -1 326 -2 326 -2 0 -36 -89 -75 -199z"></path>
<path d="M4140 6065 c0 -6 -7 -212 -15 -460 -22 -676 -22 -673 25 -915 47
-241 50 -254 55 -248 2 2 74 226 159 498 l154 494 -180 310 c-180 309 -198
339 -198 321z"></path>
<path d="M3210 5864 c-58 -81 -109 -155 -114 -165 -6 -14 9 -46 65 -138 41
-66 77 -121 80 -121 3 0 11 42 17 93 7 50 23 175 37 276 14 102 24 188 23 193
-2 5 -50 -57 -108 -138z"></path>
<path d="M3092 5558 c3 -29 19 -205 34 -390 16 -186 31 -338 34 -338 3 0 21
124 42 276 l36 277 -70 113 c-38 63 -72 114 -75 114 -3 0 -3 -24 -1 -52z"></path>
<path d="M3251 5260 c-6 -47 -27 -201 -47 -343 l-35 -259 41 -231 c22 -128 42
-242 45 -254 5 -20 28 -6 243 153 130 97 245 181 255 189 17 12 0 42 -227 406
-134 217 -249 401 -254 409 -6 11 -13 -10 -21 -70z"></path>
<path d="M2694 5029 c46 -224 37 -216 103 -99 l32 56 -82 122 c-45 67 -85 121
-88 122 -3 0 12 -90 35 -201z"></path>
<path d="M4686 4880 c-49 -91 -95 -175 -102 -187 -8 -12 -14 -25 -14 -28 0 -9
171 84 193 104 15 15 17 33 15 147 l-3 129 -89 -165z"></path>
<path d="M2796 4870 c-25 -43 -46 -89 -46 -102 1 -44 107 -533 113 -518 3 8
29 131 57 273 l51 258 -57 84 c-32 47 -61 85 -65 85 -4 0 -28 -36 -53 -80z"></path>
<path d="M4097 4590 c-4 -102 -9 -266 -12 -365 l-5 -180 45 135 c25 74 47 153
50 175 3 25 -9 110 -33 230 l-38 190 -7 -185z"></path>
<path d="M2460 4288 c-139 -244 -261 -454 -269 -468 -14 -21 -14 -23 -1 -16
33 19 626 390 633 397 9 7 -93 529 -103 529 -3 0 -120 -199 -260 -442z"></path>
<path d="M3518 4307 c-281 -207 -260 -176 -230 -331 l17 -89 185 -103 c102
-57 191 -103 198 -104 6 0 12 7 12 15 0 8 16 185 35 392 20 208 34 383 33 389
-2 7 -114 -70 -250 -169z"></path>
<path d="M4135 4115 c-31 -99 -65 -207 -75 -240 -10 -33 -36 -118 -58 -190
-23 -71 -40 -131 -38 -132 7 -7 361 74 359 83 -13 76 -116 607 -122 629 -7 26
-15 8 -66 -150z"></path>
<path d="M2515 3970 c-176 -110 -324 -206 -328 -213 -5 -7 36 -123 108 -305
l117 -293 -23 -97 c-13 -53 -24 -103 -24 -111 0 -22 88 -130 106 -131 12 0 20
16 29 59 7 32 15 64 19 70 6 9 44 3 147 -23 346 -86 465 -101 794 -101 344 1
511 26 845 126 71 21 135 39 141 39 7 0 22 -32 34 -71 13 -43 26 -69 33 -66 6
2 33 31 60 65 l48 61 -27 88 c-15 48 -76 187 -136 308 -61 121 -111 221 -112
222 -1 1 -94 -18 -206 -41 -113 -24 -212 -41 -220 -38 -8 3 -141 75 -295 160
-154 85 -309 170 -345 190 -36 19 -99 54 -141 77 -107 59 -276 181 -284 205
-3 11 -10 20 -14 20 -4 0 -151 -90 -326 -200z"></path>
<path d="M4516 3929 c-65 -133 -115 -243 -113 -246 3 -2 86 36 185 86 l180 90
-64 153 c-36 84 -66 154 -68 155 -1 2 -56 -105 -120 -238z"></path>
<path d="M3168 4047 c-32 -23 -57 -45 -58 -48 0 -7 152 -90 157 -86 5 6 -29
177 -36 177 -3 0 -32 -20 -63 -43z"></path>
<path d="M4571 3718 c-102 -48 -187 -91 -190 -94 -3 -3 37 -89 88 -191 71
-142 95 -183 102 -171 10 18 189 541 186 544 -1 1 -85 -39 -186 -88z"></path>
<path d="M1850 3727 c0 -7 270 -756 347 -964 21 -57 43 -102 48 -102 9 0 104
418 105 460 0 8 -37 60 -83 115 -46 54 -152 182 -237 284 -171 206 -180 217
-180 207z"></path>
<path d="M4875 3114 c-105 -64 -194 -120 -200 -125 -9 -9 47 -276 65 -308 9
-17 12 -13 195 302 75 131 136 240 134 242 -3 2 -90 -48 -194 -111z"></path>
<path d="M4580 2901 c-25 -33 -53 -60 -62 -61 -9 0 -56 -20 -105 -45 -127 -63
-197 -78 -383 -79 -176 -1 -218 8 -265 60 l-30 33 -130 -10 c-72 -5 -180 -6
-242 -3 l-111 7 -39 -41 c-53 -56 -96 -66 -283 -66 -175 0 -237 12 -359 69
-40 19 -83 35 -95 35 -14 0 -38 21 -71 62 l-50 61 -13 -44 c-7 -24 -22 -97
-33 -161 -16 -96 -18 -125 -9 -160 7 -24 100 -189 207 -367 221 -366 246 -422
264 -589 l12 -109 83 -72 c45 -39 91 -71 103 -71 15 0 37 25 80 89 l60 89 383
7 c211 4 394 6 408 4 17 -3 42 -28 86 -89 33 -47 67 -86 75 -88 8 -1 53 33
100 77 l86 80 7 105 c11 179 32 231 269 666 91 168 168 317 172 331 7 27 -23
186 -52 283 l-18 58 -45 -61z"></path>
<path d="M4141 1363 l-82 -88 -27 30 c-15 17 -43 51 -63 75 l-36 44 -21 -139
c-12 -77 -22 -147 -22 -155 0 -15 207 -170 226 -170 5 0 54 46 110 101 l102
101 -37 142 c-26 99 -42 142 -53 144 -9 2 -50 -34 -97 -85z"></path>
<path d="M2771 1393 c-27 -108 -52 -234 -49 -251 2 -10 48 -62 104 -115 l101
-96 111 85 c86 65 112 90 112 108 0 29 -48 268 -56 275 -3 3 -8 1 -12 -5 -42
-62 -96 -134 -101 -134 -4 0 -44 38 -91 85 -47 47 -90 85 -97 85 -7 0 -17 -17
-22 -37z"></path>
<path d="M3445 1420 c-181 -4 -330 -7 -331 -8 -1 -1 12 -70 29 -152 l30 -151
96 7 c92 6 112 13 123 45 2 4 59 9 127 10 116 1 125 0 140 -20 14 -18 30 -22
114 -28 55 -3 97 -2 97 3 0 11 38 237 46 277 l6 27 -74 -2 c-40 -1 -221 -5
-403 -8z"></path>
</g>
</svg>