<?xml version="1.0" standalone="no"?>
<!DOCTYPE svg PUBLIC "-//W3C//DTD SVG 20010904//EN"
 "http://www.w3.org/TR/2001/REC-SVG-20010904/DTD/svg10.dtd">
<svg version="1.0" xmlns="http://www.w3.org/2000/svg"
 width="548.000000pt" height="548.000000pt" viewBox="0 0 548.000000 548.000000"
 preserveAspectRatio="xMidYMid meet">
<metadata>
Created by potrace 1.14, written by Peter Selinger 2001-2017
</metadata>
<g transform="translate(0.000000,548.000000) scale(0.100000,-0.100000)"
fill="#000000" stroke="none">
<path d="M3088 5207 c-9 -23 -69 -197 -132 -386 l-115 -343 26 -42 c73 -117
137 -206 144 -199 6 7 16 85 35 293 2 25 6 63 8 85 3 22 8 74 11 115 5 70 8
101 20 220 2 25 7 81 10 125 3 44 8 101 11 128 3 26 4 47 2 47 -1 0 -11 -19
-20 -43z"/>
<path d="M2151 5013 c-7 -21 -16 -47 -21 -58 -22 -47 -90 -250 -90 -267 0 -20
109 -208 121 -208 4 0 8 128 8 285 1 157 0 285 -2 285 -1 0 -9 -17 -16 -37z"/>
<path d="M3349 4820 c-1 -3 -2 -43 -4 -90 -1 -47 -6 -155 -9 -240 -4 -85 -8
-279 -11 -430 -3 -237 -1 -290 15 -380 29 -163 57 -301 63 -307 3 -2 10 10 15
29 6 18 51 164 102 323 50 160 93 297 95 305 2 8 18 58 35 110 17 52 32 102
32 110 1 8 -66 132 -150 275 -145 250 -180 306 -183 295z"/>
<path d="M2554 4703 c-125 -169 -146 -203 -140 -226 7 -28 111 -200 123 -204
5 -2 10 2 10 9 0 7 3 36 7 63 11 70 14 93 20 150 3 28 8 64 11 80 2 17 7 46 9
65 3 19 8 56 11 83 4 26 5 47 3 47 -2 0 -27 -30 -54 -67z"/>
<path d="M2405 4392 c2 -10 6 -62 10 -115 3 -52 8 -106 10 -119 2 -13 7 -66
10 -118 15 -200 26 -302 33 -295 3 3 7 13 8 23 3 20 33 231 39 279 7 47 18
136 19 153 1 17 -114 210 -126 210 -4 0 -5 -8 -3 -18z"/>
<path d="M2556 4139 c-3 -19 -8 -47 -11 -64 -3 -16 -8 -50 -10 -75 -3 -25 -7
-56 -10 -70 -2 -14 -7 -43 -10 -65 -2 -22 -9 -74 -15 -115 -6 -41 -13 -97 -16
-125 -3 -27 -7 -52 -9 -55 -2 -3 5 -48 15 -100 10 -52 21 -108 23 -125 15 -90
39 -220 42 -223 7 -7 57 26 248 165 112 83 197 152 197 161 0 9 -19 48 -42 86
-39 66 -387 627 -394 635 -1 1 -5 -12 -8 -30z"/>
<path d="M2020 4057 c0 -18 47 -269 56 -299 9 -29 31 -20 49 20 10 20 24 45
32 54 17 19 9 35 -80 163 -61 86 -57 82 -57 62z"/>
<path d="M3861 3805 c-98 -181 -114 -210 -125 -224 -17 -22 24 -6 105 41 43
25 71 48 74 61 3 12 5 67 3 122 l-3 100 -54 -100z"/>
<path d="M2173 3807 c-22 -33 -34 -56 -54 -95 -23 -49 -23 -63 11 -222 12 -58
23 -109 24 -115 18 -84 39 -165 45 -165 4 0 27 104 52 232 l45 232 -45 67
c-48 72 -65 86 -78 66z"/>
<path d="M3312 3635 c1 -26 -6 -238 -17 -520 -3 -88 -3 -89 12 -55 8 19 28 76
43 125 30 94 33 169 11 253 -5 20 -12 55 -16 77 -10 68 -33 154 -33 120z"/>
<path d="M2050 3598 c-5 -13 -14 -30 -20 -38 -14 -22 -128 -217 -158 -270 -14
-25 -68 -119 -120 -210 -152 -263 -163 -283 -160 -285 2 -2 131 78 288 177
201 126 285 184 284 196 -1 14 -20 117 -49 272 -17 90 -38 170 -46 175 -5 4
-14 -4 -19 -17z"/>
<path d="M2895 3322 c-221 -156 -301 -219 -317 -251 -14 -30 -14 -40 4 -119
10 -48 20 -87 21 -87 1 -1 56 -31 122 -67 66 -36 144 -78 173 -92 50 -26 52
-26 53 -6 1 11 2 23 3 28 2 7 15 158 21 237 2 22 6 65 9 95 16 153 30 340 25
340 -2 0 -53 -35 -114 -78z"/>
<path d="M3377 3178 c-15 -40 -66 -204 -152 -482 -20 -65 -34 -120 -31 -123 4
-4 137 22 219 43 9 2 26 6 38 9 59 13 60 14 54 58 -4 23 -8 44 -10 47 -2 3 -6
24 -9 46 -11 68 -85 436 -89 440 -2 3 -11 -15 -20 -38z"/>
<path d="M2005 3019 c-203 -127 -403 -257 -409 -268 -6 -10 33 -121 124 -351
39 -97 70 -183 70 -192 0 -9 -9 -54 -20 -99 -19 -81 -19 -83 0 -113 10 -17 33
-44 50 -61 35 -34 45 -27 56 36 3 20 10 42 14 49 9 14 -1 16 265 -44 160 -37
196 -42 325 -53 163 -13 532 -6 620 12 14 3 39 7 55 10 64 9 176 36 310 74 77
23 145 41 151 41 6 0 23 -28 38 -62 l27 -63 27 30 c15 17 38 44 50 61 l22 32
-24 68 c-27 78 -69 173 -159 357 -58 119 -64 127 -87 122 -14 -3 -36 -7 -50
-10 -14 -2 -80 -16 -147 -30 -67 -14 -132 -25 -144 -25 -23 0 -100 40 -374
192 -38 22 -83 46 -100 54 -16 8 -39 21 -50 27 -11 7 -65 37 -120 66 -121 66
-258 157 -310 205 -21 20 -41 36 -44 35 -3 0 -78 -45 -166 -100z"/>
<path d="M3687 2911 c-92 -190 -105 -221 -91 -221 6 0 306 148 311 154 6 6
-105 260 -114 263 -5 2 -53 -86 -106 -196z"/>
<path d="M2472 3011 c-39 -29 -49 -41 -40 -49 23 -18 126 -71 130 -66 6 6 -22
136 -31 147 -4 4 -31 -10 -59 -32z"/>
<path d="M3880 2790 c-8 -6 -81 -42 -163 -81 -81 -39 -149 -74 -151 -78 -6 -9
148 -314 160 -318 8 -3 142 364 169 465 7 24 6 25 -15 12z"/>
<path d="M1331 2608 c23 -62 45 -124 49 -138 4 -14 15 -43 23 -65 15 -41 53
-144 147 -405 60 -166 89 -235 95 -229 7 8 48 171 71 284 1 6 7 36 14 68 11
56 11 61 -12 93 -41 57 -413 503 -420 503 -4 1 11 -50 33 -111z"/>
<path d="M4130 2248 c-19 -11 -95 -56 -167 -101 -114 -70 -133 -85 -133 -107
0 -38 42 -223 56 -243 12 -19 43 28 211 323 97 170 96 165 33 128z"/>
<path d="M3742 1985 c-23 -30 -47 -55 -53 -55 -7 0 -49 -18 -96 -40 -107 -52
-198 -70 -348 -72 -141 -1 -192 11 -233 53 -29 30 -32 31 -99 25 -82 -8 -298
-8 -333 -1 -18 3 -33 -4 -61 -31 -57 -56 -92 -64 -274 -60 -143 2 -167 5 -230
28 -38 14 -95 35 -125 46 -40 15 -68 34 -101 72 l-46 51 -12 -43 c-19 -71 -41
-201 -41 -241 0 -45 25 -93 206 -399 181 -305 206 -361 219 -493 11 -103 11
-103 52 -141 46 -43 118 -94 131 -94 11 0 53 52 94 117 27 42 29 43 80 44 29
0 190 2 358 5 347 5 314 13 388 -88 23 -31 46 -59 52 -63 11 -7 38 12 118 86
49 45 55 55 58 97 10 128 14 154 29 207 15 50 111 249 189 390 16 28 63 118
106 200 63 121 78 157 75 185 -5 45 -32 173 -48 227 l-12 42 -43 -54z"/>
<path d="M3351 604 l-78 -80 -54 63 c-29 34 -54 61 -56 59 -4 -3 -16 -76 -28
-161 -3 -22 -8 -51 -11 -65 -5 -29 12 -47 111 -122 93 -69 85 -70 190 33 89
87 92 92 84 122 -31 116 -62 213 -70 222 -6 5 -39 -21 -88 -71z"/>
<path d="M2126 652 c-6 -10 -27 -94 -41 -162 -18 -93 -22 -83 73 -180 48 -50
93 -90 98 -90 9 0 60 37 161 117 42 34 44 42 32 110 -37 206 -38 207 -93 126
-48 -71 -45 -71 -131 12 -78 75 -89 82 -99 67z"/>
<path d="M2573 652 c-164 -3 -153 7 -128 -111 14 -66 23 -115 29 -151 3 -16
13 -17 115 -7 44 5 70 12 82 26 15 15 34 19 118 20 86 2 104 -1 128 -18 33
-24 166 -36 182 -17 5 6 12 29 15 51 13 86 17 112 26 158 6 26 10 50 10 53 0
5 -221 3 -577 -4z"/>
</g>
</svg>
